<?xml version="1.0" standalone="no"?><!DOCTYPE svg PUBLIC "-//W3C//DTD SVG 1.1//EN" "http://www.w3.org/Graphics/SVG/1.1/DTD/svg11.dtd"><svg t="1590899458378" class="icon" viewBox="0 0 1024 1024" version="1.1" xmlns="http://www.w3.org/2000/svg" p-id="1166" xmlns:xlink="http://www.w3.org/1999/xlink" width="128" height="128"><defs><style type="text/css"></style></defs><path d="M960 326.4h-896c-38.4 0-64-25.6-64-64s25.6-64 64-64h896c38.4 0 64 25.6 64 64s-25.6 64-64 64z" fill="#ffc1cf" p-id="1167"></path><path d="M915.2 300.8l-108.8-134.4c-19.2-25.6-19.2-70.4 6.4-89.6 25.6-19.2 70.4-19.2 89.6 6.4l108.8 134.4c19.2 25.6 19.2 70.4-6.4 89.6-25.6 25.6-64 19.2-89.6-6.4zM960 640h-896c-38.4 0-64-25.6-64-64s25.6-64 64-64h896c38.4 0 64 25.6 64 64s-25.6 64-64 64z" fill="#ffc1cf" p-id="1168"></path><path d="M915.2 620.8l-108.8-134.4c-19.2-25.6-19.2-70.4 6.4-89.6 25.6-19.2 70.4-19.2 89.6 6.4l108.8 134.4c19.2 25.6 19.2 70.4-6.4 89.6-25.6 25.6-64 19.2-89.6-6.4z" fill="#ffc1cf" p-id="1169"></path><path d="M960 960h-896c-38.4 0-64-25.6-64-64s25.6-64 64-64h896c38.4 0 64 25.6 64 64s-25.6 64-64 64z" fill="#ffc1cf" p-id="1170"></path><path d="M915.2 934.4l-108.8-134.4c-19.2-25.6-19.2-70.4 6.4-89.6 25.6-19.2 70.4-19.2 89.6 6.4l108.8 134.4c19.2 25.6 19.2 70.4-6.4 89.6-25.6 25.6-64 19.2-89.6-6.4z" fill="#ffc1cf" p-id="1171"></path></svg>