<?xml version="1.0" standalone="no"?><!DOCTYPE svg PUBLIC "-//W3C//DTD SVG 1.1//EN" "http://www.w3.org/Graphics/SVG/1.1/DTD/svg11.dtd"><svg t="1590898480399" class="icon" viewBox="0 0 1024 1024" version="1.1" xmlns="http://www.w3.org/2000/svg" p-id="2670" xmlns:xlink="http://www.w3.org/1999/xlink" width="128" height="128"><defs><style type="text/css"></style></defs><path d="M784.384 476.16c-6.144-6.144-13.824-9.216-22.016-9.216s-15.872 3.072-22.016 9.216L537.6 678.912V126.976c0-17.408-13.824-31.232-31.232-31.232s-31.232 13.824-31.232 31.232v550.4L273.408 476.16c-6.144-6.144-14.336-9.216-22.016-9.216-8.192 0-15.872 3.072-22.016 9.216-12.288 12.288-12.288 31.744 0 44.032L482.304 773.12c3.072 3.072 7.168 5.632 10.752 7.168 4.096 1.536 8.192 2.56 12.8 2.56 1.024 0 2.048-0.512 3.072-0.512 8.192 0 16.384-3.072 22.528-9.216l252.928-252.928c12.288-12.288 12.288-31.744 0-44.032z" fill="#d81e06" p-id="2671"></path><path d="M826.368 920.576H187.392c-52.736 0-95.744-43.008-95.744-95.744v-98.816c0-17.408 14.336-31.744 31.744-31.744s31.744 14.336 31.744 31.744v98.816c0 17.408 14.336 31.744 31.744 31.744h638.976c17.408 0 31.744-14.336 31.744-31.744v-98.816c0-17.408 14.336-31.744 31.744-31.744s31.744 14.336 31.744 31.744v98.816c1.024 52.736-41.984 95.744-94.72 95.744z" fill="#d81e06" p-id="2672"></path></svg>