<?xml version="1.0" standalone="no"?><!DOCTYPE svg PUBLIC "-//W3C//DTD SVG 1.1//EN" "http://www.w3.org/Graphics/SVG/1.1/DTD/svg11.dtd"><svg t="1590899532770" class="icon" viewBox="0 0 1024 1024" version="1.1" xmlns="http://www.w3.org/2000/svg" p-id="1166" xmlns:xlink="http://www.w3.org/1999/xlink" width="128" height="128"><defs><style type="text/css"></style></defs><path d="M99.5 499.679c24.643 0 44.643-20 44.643-44.643v-22.143c0-54.197 44.018-98.214 98.214-98.214H812c0.893 0 1.786 0 2.59 0.089L702.535 446.732c-17.411 17.41-17.411 45.714 0 63.125s45.714 17.41 63.125 0l189.375-189.375c17.41-17.41 17.41-45.714 0-63.125L765.66 67.893c-17.411-17.41-45.715-17.41-63.125 0s-17.411 45.714 0 63.125L816.91 245.393c-1.607-0.09-3.304-0.09-4.911-0.09H242.357c-103.393 0-187.5 84.108-187.5 187.5v22.143c0 24.733 20 44.733 44.643 44.733z" fill="#d81e06" p-id="1167"></path><path d="M924.5 524.5c-24.643 0-44.643 20-44.643 44.643v23.036c0 54.196-44.018 98.214-98.214 98.214H212c-1.518 0-3.036-0.09-4.554-0.179L320.482 577.18c17.41-17.411 17.41-45.715 0-63.125s-45.714-17.411-63.125 0L67.893 703.518c-17.41 17.41-17.41 45.714 0 63.125l189.375 189.375c17.41 17.41 45.714 17.41 63.125 0s17.41-45.714 0-63.125L207.179 779.679c1.607 0.089 3.214 0.089 4.821 0.089h569.643c103.393 0 187.5-84.107 187.5-187.5v-23.125c0-24.643-20-44.643-44.643-44.643z" fill="#d81e06" p-id="1168"></path></svg>