<?xml version="1.0" standalone="no"?><!DOCTYPE svg PUBLIC "-//W3C//DTD SVG 1.1//EN" "http://www.w3.org/Graphics/SVG/1.1/DTD/svg11.dtd"><svg t="1590895484837" class="icon" viewBox="0 0 1024 1024" version="1.1" xmlns="http://www.w3.org/2000/svg" p-id="1441" xmlns:xlink="http://www.w3.org/1999/xlink" width="128" height="128"><defs><style type="text/css"></style></defs><path d="M543.9 350.7c10.1-18.4 21.5-36.1 34.2-52.8-1.8 2.4-3.6 4.7-5.5 7.1 16-20.8 34.3-39.8 55.1-55.8-2.4 1.8-4.7 3.6-7.1 5.5 16-12.3 33.3-22.6 51.9-30.5-2.8 1.2-5.6 2.4-8.4 3.5 16.6-6.9 33.9-11.8 51.6-14.2-3.1 0.4-6.2 0.8-9.3 1.3 17-2.3 34.3-2.3 51.3 0-3.1-0.4-6.2-0.8-9.3-1.3 16.8 2.3 33.1 6.8 48.7 13.4-2.8-1.2-5.6-2.4-8.4-3.5 15.1 6.4 29.2 14.7 42.2 24.7-2.4-1.8-4.7-3.6-7.1-5.5 12.7 9.8 24.1 21.2 33.9 33.9-1.8-2.4-3.6-4.7-5.5-7.1 9.9 12.9 18.2 27 24.5 41.9-1.2-2.8-2.4-5.6-3.5-8.4 6.5 15.5 10.9 31.8 13.2 48.5-0.4-3.1-0.8-6.2-1.3-9.3 2.5 19.5 2 39.4-0.5 58.9 0.4-3.1 0.8-6.2 1.3-9.3-3.3 24.5-10.1 48.3-19.6 71.1 1.2-2.8 2.4-5.6 3.5-8.4-14.3 33.9-34.2 65.1-56.6 94.3 1.8-2.4 3.6-4.7 5.5-7.1-33 42.7-71.2 81.2-110.5 118-44.7 41.9-91.2 81.7-137.3 122-27.6 24.1-55.1 48.3-82.2 73-13.6 12.4-13.5 37.1 0 49.5 14.5 13.3 35 13.2 49.5 0 87.7-79.8 181.1-154 264.3-238.7 36.1-36.7 70.3-76.1 98-119.6 24.4-38.3 43.9-81.5 51.5-126.5 6.7-40 6.9-81.3-5.7-120.2-10.9-33.5-29.3-64.3-54.1-89.4-47.3-47.8-116.9-73.5-184-65.3-39 4.8-76.1 17.8-108.9 39.6-39.2 26-71 60.7-97 99.7-6.8 10.3-13.2 20.8-19.1 31.6-8.8 16-4.4 38.9 12.6 47.9 16.6 8.8 38.6 4.6 48.1-12.5z" fill="#d81e06" p-id="1442"></path><path d="M540 315.4c-41.7-75.7-107.6-145-194.3-165.8-35.4-8.5-72.2-8.7-107.6-0.3-34 8-64.7 24.6-91.6 46.5-54.8 44.4-83.4 115.6-79.7 185.4 5.3 100.2 62.5 185.2 128.2 257.1 36.9 40.3 77.1 77.5 117.8 113.8 45.3 40.4 91.4 79.8 136.8 120.1 11.9 10.5 23.7 21.1 35.4 31.8 13.5 12.3 36.3 14.4 49.5 0 12.3-13.4 14.5-36.3 0-49.5-47.6-43.3-96.4-85.2-144.7-127.6-43.7-38.4-87.2-77.3-127.6-119.3-20.3-21.1-39.7-42.9-57.6-66.1 1.8 2.4 3.6 4.7 5.5 7.1-22.4-29.1-42.3-60.3-56.6-94.3 1.2 2.8 2.4 5.6 3.5 8.4-9.5-22.8-16.3-46.6-19.6-71.1 0.4 3.1 0.8 6.2 1.3 9.3-2.5-19.5-3-39.3-0.5-58.9-0.4 3.1-0.8 6.2-1.3 9.3 2.3-16.7 6.7-33 13.2-48.5-1.2 2.8-2.4 5.6-3.5 8.4 6.4-15 14.6-29 24.5-41.9-1.8 2.4-3.6 4.7-5.5 7.1 9.9-12.7 21.3-24 33.9-33.9-2.4 1.8-4.7 3.6-7.1 5.5 13-10 27.1-18.3 42.2-24.7-2.8 1.2-5.6 2.4-8.4 3.5 15.6-6.6 31.9-11.1 48.7-13.4-3.1 0.4-6.2 0.8-9.3 1.3 17-2.3 34.3-2.2 51.3 0-3.1-0.4-6.2-0.8-9.3-1.3 17.8 2.5 35.1 7.3 51.6 14.2-2.8-1.2-5.6-2.4-8.4-3.5 18.6 7.9 35.9 18.3 51.9 30.5-2.4-1.8-4.7-3.6-7.1-5.5 20.8 16.1 39 35.1 55.1 55.8-1.8-2.4-3.6-4.7-5.5-7.1 12.8 16.7 24.1 34.4 34.2 52.8 8.8 16.1 32.3 22.6 47.9 12.6 16.4-10.4 22.2-30.6 12.7-47.8z" fill="#d81e06" p-id="1443"></path></svg>