<?xml version="1.0" standalone="no"?><!DOCTYPE svg PUBLIC "-//W3C//DTD SVG 1.1//EN" "http://www.w3.org/Graphics/SVG/1.1/DTD/svg11.dtd"><svg t="1590895478483" class="icon" viewBox="0 0 1024 1024" version="1.1" xmlns="http://www.w3.org/2000/svg" p-id="1169" xmlns:xlink="http://www.w3.org/1999/xlink" width="128" height="128"><defs><style type="text/css"></style></defs><path d="M466.505143 296.326095L721.67619 471.82019a48.761905 48.761905 0 0 1 0 80.35962l-255.219809 175.494095A48.761905 48.761905 0 0 1 390.095238 687.494095V336.505905a48.761905 48.761905 0 0 1 76.409905-40.17981z" fill="#d81e06" p-id="1170"></path><path d="M512 1024C229.229714 1024 0 794.770286 0 512S229.229714 0 512 0 1024 229.229714 1024 512 794.770286 1024 512 1024z m0-97.52381a414.47619 414.47619 0 1 0 0-828.95238 414.47619 414.47619 0 0 0 0 828.95238z" fill="#d81e06" p-id="1171"></path></svg>