<?xml version="1.0" standalone="no"?><!DOCTYPE svg PUBLIC "-//W3C//DTD SVG 1.1//EN" "http://www.w3.org/Graphics/SVG/1.1/DTD/svg11.dtd"><svg t="1590895481690" class="icon" viewBox="0 0 1536 1024" version="1.1" xmlns="http://www.w3.org/2000/svg" p-id="1304" xmlns:xlink="http://www.w3.org/1999/xlink" width="192" height="128"><defs><style type="text/css"></style></defs><path d="M826.026667 61.44c-17.066667-10.24-40.96-13.653333-58.026667-6.826667L354.986667 245.76h-170.666667c-34.133333 0-64.853333 27.306667-64.853333 64.853333V716.8c0 34.133333 27.306667 64.853333 64.853333 64.853333h170.666667l409.6 191.146667h3.413333c6.826667 3.413333 17.066667 3.413333 23.893333 3.413333 13.653333 0 23.893333-3.413333 34.133334-10.24 17.066667-10.24 27.306667-30.72 27.306666-51.2V112.64c0-20.48-10.24-40.96-27.306666-51.2zM774.826667 887.466667l-392.533334-184.32h-3.413333c-6.826667-3.413333-17.066667-3.413333-23.893333-3.413334H197.973333v-375.466666h160.426667c6.826667 0 17.066667 0 23.893333-3.413334L774.826667 136.533333v750.933334z" fill="#d81e06" p-id="1305"></path><path d="M382.293333 706.56c-10.24-3.413333-17.066667-6.826667-27.306666-6.826667H197.973333v-375.466666h160.426667c6.826667 0 17.066667 0 23.893333-3.413334" fill="#d81e06" p-id="1306"></path><path d="M1099.093333 273.066667c-17.066667-17.066667-40.96-17.066667-54.613333 0-17.066667 17.066667-17.066667 40.96 0 54.613333 98.986667 98.986667 98.986667 259.413333 0 358.4-17.066667 17.066667-17.066667 40.96 0 54.613333 6.826667 6.826667 17.066667 10.24 27.306667 10.24s20.48-3.413333 27.306666-10.24c126.293333-129.706667 126.293333-337.92 0-467.626666z" fill="#d81e06" p-id="1307"></path><path d="M1262.933333 133.12c-17.066667-17.066667-40.96-17.066667-54.613333 0-17.066667 17.066667-17.066667 40.96 0 54.613333 174.08 174.08 174.08 460.8 0 634.88-17.066667 17.066667-17.066667 40.96 0 54.613334 6.826667 6.826667 17.066667 10.24 27.306667 10.24s20.48-3.413333 27.306666-10.24c204.8-204.8 204.8-539.306667 0-744.106667zM327.68 296.96h78.506667v426.666667H327.68z" fill="#d81e06" p-id="1308"></path></svg>