<?xml version="1.0" standalone="no"?><!DOCTYPE svg PUBLIC "-//W3C//DTD SVG 1.1//EN" "http://www.w3.org/Graphics/SVG/1.1/DTD/svg11.dtd"><svg t="1590843947631" class="icon" viewBox="0 0 1024 1024" version="1.1" xmlns="http://www.w3.org/2000/svg" p-id="11390" xmlns:xlink="http://www.w3.org/1999/xlink" width="32" height="32"><defs><style type="text/css"></style></defs><path d="M716.7 889.5l-42.6-16.7 158.6-405.4c7.3-18.7-2.6-39.8-21.7-46l-277.4-90.6c-17.8-5.8-37 3.4-43.6 20.9L351.8 717.3l-65.5-24.7 194-513.2c6.5-17.3 25.4-26.5 43.1-21.1l415 128.2c19.4 6 29.7 27.2 22.3 46.2l-212.4 543c-5 12.5-19.1 18.7-31.6 13.8z" fill="#d81e06" p-id="11391"></path><path d="M223 667.9m-138 0a138 138 0 1 0 276 0 138 138 0 1 0-276 0Z" fill="#d81e06" p-id="11392"></path><path d="M621.2 822.3m-138 0a138 138 0 1 0 276 0 138 138 0 1 0-276 0Z" fill="#d81e06" p-id="11393"></path><path d="M225.2 400.7L121.1 140c-6.8-16.9 2.4-36 19.8-41.3l107.9-32.9c14.4-4.4 29.7 2.5 36 16.2l13.2 28.8c7.5 16.3-0.9 35.4-17.9 41l-73.7 24.3c-6.9 2.3-10.5 9.9-7.8 16.6L269 372.3c2.1 5.4-0.5 11.4-5.9 13.6l-37.9 14.8z" fill="#d81e06" p-id="11394"></path><path d="M190.2 400.7m-84.8 0a84.8 84.8 0 1 0 169.6 0 84.8 84.8 0 1 0-169.6 0Z" fill="#d81e06" p-id="11395"></path></svg>