<?xml version="1.0" standalone="no"?><!DOCTYPE svg PUBLIC "-//W3C//DTD SVG 1.1//EN" "http://www.w3.org/Graphics/SVG/1.1/DTD/svg11.dtd"><svg t="1590839104224" class="icon" viewBox="0 0 1047 1024" version="1.1" xmlns="http://www.w3.org/2000/svg" p-id="8104" width="49.078125" height="48" xmlns:xlink="http://www.w3.org/1999/xlink"><defs><style type="text/css"></style></defs><path d="M 508.747 822.044 c -14.8927 -20.4585 -42.6196 -23.2287 -65.3146 -6.15025 c -29.4043 22.1613 -58.6052 44.602 -87.9328 66.8395 c -7.19223 5.43865 -14.6385 10.5469 -24.3469 17.5104 v -15.6553 c 0.0508281 -34.3092 0.101657 -68.593 0.1779 -102.902 c 0.0254146 -18.1458 0.0508281 -18.1458 17.6629 -18.3235 c 70.2959 -0.711598 127.225 -56.2418 127.961 -126.462 c 0.813255 -76.624 0.355801 -153.298 0.152485 -229.922 c -0.0762426 -31.3867 -11.4364 -58.8086 -32.0982 -82.1388 c -25.8463 -29.2011 -58.6052 -44.2208 -97.6416 -43.5854 c -12.7834 0.203314 -16.9767 -3.43092 -16.5446 -16.3921 c 0.940331 -28.769 0.406628 -57.5886 0.457457 -86.383 c 0.0254146 -10.0895 0 -20.2045 0 -33.0639 c 5.10827 3.45633 7.57345 4.93037 9.83531 6.68395 c 34.5888 26.5579 68.9235 53.3953 103.767 79.6228 c 21.9071 16.4938 49.3037 12.7579 64.1201 -7.80218 c 14.664 -20.3568 9.75909 -45.7965 -11.8939 -62.4429 c -52.6837 -40.4849 -105.495 -80.8173 -157.9 -121.658 c -20.179 -15.7315 -41.5014 -21.3226 -64.9588 -9.65738 c -22.949 11.411 -31.5645 31.3612 -31.4119 56.4195 c 0.355801 58.8593 0.127071 117.719 0.127072 176.578 v 17.9679 c -7.49721 0 -13.317 -0.0508281 -19.1369 0 c -69.9399 0.813255 -126.385 57.3854 -126.638 127.579 c -0.279557 75.3787 -0.254142 150.756 0.0508292 226.135 c 0.279557 71.2362 55.6318 126.971 127.097 128.468 c 5.76903 0.127071 11.5126 0.0254146 18.6286 0.0254146 v 17.1547 c -0.0254146 60.13 -0.127071 120.259 0 180.39 c 0.0762426 33.6739 19.5182 56.1909 51.6672 59.8506 c 18.0695 2.05856 32.6319 -5.92151 46.4827 -16.57 c 51.6672 -39.7225 103.563 -79.1399 155.381 -118.659 c 22.39 -17.1292 27.3457 -42.7214 12.2497 -63.4593 Z M 229.139 676.192 c -27.6508 -1.09281 -44.0937 -17.0021 -44.1445 -44.8307 c -0.1779 -73.5998 -0.203314 -147.175 0.0254134 -220.773 c 0.0762426 -27.9557 24.2197 -47.6009 51.3114 -41.5268 c 2.94805 0.66077 6.27731 7.92925 6.32815 12.1481 c 0.457457 47.3722 0.279557 94.7447 0.279557 142.091 h -0.0508281 c 0 46.5335 -0.279557 93.0419 0.203313 139.574 c 0.101657 10.7502 -3.63423 13.7237 -13.9523 13.317 Z m 101.835 -293.585 c -0.127071 -11.1314 3.12595 -14.7403 14.4099 -14.3338 c 25.8463 0.940331 43.2551 15.5535 43.4837 41.2981 c 0.66077 75.3533 0.686185 150.706 0 226.06 c -0.228727 26.5579 -25.2619 45.5678 -50.8794 39.7225 c -3.15137 -0.711598 -6.53146 -8.69168 -6.58229 -13.3425 c -0.48287 -46.559 -0.304971 -93.1175 -0.304971 -139.702 h 0.0762426 c 0.0254146 -46.559 0.330386 -93.143 -0.203314 -139.702 Z M 581.483 523.503 c 0 68.1865 0.304971 136.348 -0.1779 204.533 c -0.127071 19.1877 5.8961 34.233 23.1015 43.1788 c 17.6122 9.14915 34.3856 5.81986 49.8626 -5.94692 c 84.8582 -64.6284 169.869 -129.105 254.523 -193.986 c 34.6903 -26.5834 33.6739 -67.856 -1.04199 -94.3125 c -53.5225 -40.8154 -106.74 -81.9863 -160.084 -123.03 c -30.1921 -23.2287 -60.3334 -46.5335 -90.5766 -69.7113 c -15.6044 -11.9701 -32.5556 -16.1635 -51.0065 -7.01434 c -17.7137 8.79328 -23.1015 23.9149 -22.9745 43.001 m 87.6793 322.253 v -236.937 c 52.5058 40.3578 103.156 79.2925 154.95 119.116 c -51.6418 39.2651 -102.064 77.6152 -154.95 117.821 Z" p-id="8105" data-spm-anchor-id="a313x.7781069.0.i26" class="selected" fill="#d81e06"></path></svg>