<?xml version="1.0" standalone="no"?><!DOCTYPE svg PUBLIC "-//W3C//DTD SVG 1.1//EN" "http://www.w3.org/Graphics/SVG/1.1/DTD/svg11.dtd"><svg t="1590839418686" class="icon" viewBox="0 0 1024 1024" version="1.1" xmlns="http://www.w3.org/2000/svg" p-id="9404" xmlns:xlink="http://www.w3.org/1999/xlink" width="32" height="32"><defs><style type="text/css"></style></defs><path d="M958.208 732.736c0-7.04-1.28-493.184 0-555.392C960 86.016 874.816 64 833.472 71.232S433.28 142.336 362.688 161.344s-96 44.032-96 89.344 0 194.688 0 194.688L266.688 544l0 146.048c-18.624-9.088-39.296-14.592-61.376-14.592C127.232 675.52 64 738.752 64 816.768s63.232 141.248 141.248 141.248 141.248-63.232 141.248-141.248l0-27.456 0.128 0c0 0-0.064-45.888-0.128-109.12L346.496 544 346.368 544C346.304 432.832 346.304 323.456 346.688 312 347.52 283.968 352 259.008 374.016 249.024c22.4-10.176 438.592-86.144 469.248-91.456s34.048 23.808 34.048 23.808l0 424.128c-18.368-8.704-38.656-14.016-60.352-14.016-78.016 0-141.248 63.232-141.248 141.248s63.232 141.248 141.248 141.248c77.824 0 140.8-62.912 141.184-140.608l0.064 0C958.208 733.376 958.208 732.8 958.208 732.736L958.208 732.736 958.208 732.736z" p-id="9405" fill="#d81e06"></path></svg>