<?xml version="1.0" standalone="no"?><!DOCTYPE svg PUBLIC "-//W3C//DTD SVG 1.1//EN" "http://www.w3.org/Graphics/SVG/1.1/DTD/svg11.dtd"><svg t="1592030105968" class="icon" viewBox="0 0 1024 1024" version="1.1" xmlns="http://www.w3.org/2000/svg" p-id="8873" xmlns:xlink="http://www.w3.org/1999/xlink" width="256" height="256"><defs><style type="text/css"></style></defs><path d="M4.249 513.628a508.82 508.82 0 1 0 1017.64 0 508.82 508.82 0 1 0-1017.64 0z" fill="#F8E71C" p-id="8874"></path><path d="M157.626 513.628a355.442 355.442 0 1 0 710.885 0 355.442 355.442 0 1 0-710.885 0z" fill="#2283F6" p-id="8875"></path><path d="M768.47 845.347H257.674c-42.15 0-76.323-34.167-76.323-76.323V258.232c0-42.155 34.173-76.323 76.323-76.323h510.791c42.156 0 76.323 34.168 76.323 76.323v510.792c0 42.156-34.167 76.323-76.323 76.323z" fill="#FFFFFF" p-id="8876"></path><path d="M262.952 526.349a250.117 250.117 0 1 0 500.233 0 250.117 250.117 0 1 0-500.233 0z" fill="#FE3D50" p-id="8877"></path><path d="M262.952 513.628a250.117 250.117 0 1 0 500.233 0 250.117 250.117 0 1 0-500.233 0z" fill="#FE3D50" p-id="8878"></path><path d="M394.418 451.87c22.312-42.772 67.069-71.972 118.65-71.972m-182.265 69.008c26.624-74.955 98.177-128.636 182.266-128.636" fill="" p-id="8879"></path><path d="M427.351 513.628a85.717 85.717 0 1 0 171.435 0 85.717 85.717 0 1 0-171.435 0z" fill="#FFFFFF" p-id="8880"></path><path d="M437.859 513.628a75.21 75.21 0 1 0 150.42 0 75.21 75.21 0 1 0-150.42 0z" fill="#51E4C2" p-id="8881"></path><path d="M712.303 258.938v215.645a76.323 76.323 0 0 1-27.082 58.31l-44.954 37.971" fill="" p-id="8882"></path><path d="M669.766 573.256l-41.85 33.81a12.72 12.72 0 0 1-17.885-1.901l-10.495-12.988a12.72 12.72 0 0 1 1.902-17.885l41.85-33.81a12.72 12.72 0 0 1 17.885 1.9l10.495 12.989a12.72 12.72 0 0 1-1.908 17.885z" fill="#F8E71C" p-id="8883"></path><path d="M676.024 265.299a36.279 36.279 0 1 0 72.558 0 36.279 36.279 0 1 0-72.558 0z" fill="#FE3D50" p-id="8884"></path><path d="M676.024 258.938a36.279 36.279 0 1 0 72.558 0 36.279 36.279 0 1 0-72.558 0z" fill="#FE3D50" p-id="8885"></path><path d="M494.051 519.988a19.017 19.017 0 1 0 38.035 0 19.017 19.017 0 1 0-38.035 0z" fill="#51E4C2" p-id="8886"></path><path d="M494.051 513.628a19.017 19.017 0 1 0 38.035 0 19.017 19.017 0 1 0-38.035 0z" fill="#FFFFFF" p-id="8887"></path></svg>