<?xml version="1.0" standalone="no"?><!DOCTYPE svg PUBLIC "-//W3C//DTD SVG 1.1//EN" "http://www.w3.org/Graphics/SVG/1.1/DTD/svg11.dtd"><svg class="icon" width="32px" height="32.00px" viewBox="0 0 1024 1024" version="1.1" xmlns="http://www.w3.org/2000/svg"><path fill="#ffc0cb" d="M785.1008 198.7584H239.0016c-75.4688 0-136.6016 61.1328-136.4992 136.6016v353.28c0 75.3664 61.1328 136.4992 136.4992 136.4992h546.0992c75.3664 0 136.4992-61.1328 136.4992-136.4992V335.2576c0-75.3664-61.1328-136.4992-136.4992-136.4992zM819.2 688.64c0 18.8416-15.2576 34.0992-34.0992 34.0992H239.0016c-18.7392 0-34.0992-15.2576-34.0992-34.0992V335.2576c0-18.8416 15.2576-34.0992 34.0992-34.0992v0.1024h546.0992c18.7392 0 34.0992 15.2576 34.0992 34.0992v353.28z" /></svg>